<?xml version="1.0" encoding="UTF-8" standalone="no"?>
<svg
   xmlns:dc="http://purl.org/dc/elements/1.1/"
   xmlns:cc="http://creativecommons.org/ns#"
   xmlns:rdf="http://www.w3.org/1999/02/22-rdf-syntax-ns#"
   xmlns:svg="http://www.w3.org/2000/svg"
   xmlns="http://www.w3.org/2000/svg"
   xmlns:sodipodi="http://sodipodi.sourceforge.net/DTD/sodipodi-0.dtd"
   xmlns:inkscape="http://www.inkscape.org/namespaces/inkscape"
   inkscape:version="1.0 (4035a4f, 2020-05-01)"
   sodipodi:docname="back.svg"
   version="1.1"
   width="300"
   viewBox="0 0 300 350"
   height="350"
   enable-background="new 0 0 512 512"
   id="Capa_1">
  <metadata
     id="metadata29">
    <rdf:RDF>
      <cc:Work
         rdf:about="">
        <dc:format>image/svg+xml</dc:format>
        <dc:type
           rdf:resource="http://purl.org/dc/dcmitype/StillImage" />
        <dc:title></dc:title>
      </cc:Work>
    </rdf:RDF>
  </metadata>
  <defs
     id="defs27" />
  <sodipodi:namedview
     showguides="false"
     inkscape:current-layer="Capa_1"
     inkscape:window-maximized="0"
     inkscape:window-y="23"
     inkscape:window-x="0"
     inkscape:cy="63.999095"
     inkscape:cx="-33.283193"
     inkscape:zoom="1.2431182"
     showgrid="false"
     id="namedview25"
     inkscape:window-height="921"
     inkscape:window-width="1608"
     inkscape:pageshadow="2"
     inkscape:pageopacity="0"
     guidetolerance="10"
     gridtolerance="10"
     objecttolerance="10"
     borderopacity="1"
     bordercolor="#666666"
     pagecolor="#ffffff">
    <sodipodi:guide
       id="guide1167"
       orientation="0,-1"
       position="129.90713,901.38359" />
  </sodipodi:namedview>
  <g
     style="fill:#f1bdc8;fill-opacity:1"
     transform="matrix(0.13887171,0,0,0.13887171,13.905467,21.156855)"
     id="g22">
    <g
       style="fill:#f1bdc8;fill-opacity:1"
       id="g20">
      <path
         style="fill:#f1bdc8;fill-opacity:1"
         id="path10"
         d="m 256,0 c -23.814,0 -46.687,5.208 -67.983,15.479 -3.725,1.797 -5.288,6.273 -3.492,9.998 1.796,3.725 6.273,5.287 9.998,3.492 19.25,-9.284 39.934,-13.992 61.476,-13.992 78.139,0 141.709,63.571 141.709,141.709 0,23.25 -5.078,48.518 -14.684,73.07 -10.266,26.238 -25.804,49.135 -44.937,66.217 -18.473,16.493 -37.715,27.335 -57.203,32.226 l -0.129,0.032 c -16.196,4.039 -33.318,4.039 -49.514,0 -0.009,-0.002 -0.13,-0.033 -0.14,-0.035 -19.476,-4.889 -38.718,-15.729 -57.191,-32.223 -19.133,-17.082 -34.672,-39.979 -44.937,-66.217 -9.606,-24.553 -14.684,-49.82 -14.684,-73.07 0,-42.831 19.076,-82.917 52.338,-109.98 3.208,-2.61 3.693,-7.327 1.082,-10.535 -2.61,-3.208 -7.327,-3.693 -10.535,-1.082 -36.772,29.92 -57.863,74.24 -57.863,121.597 0,25.099 5.434,52.253 15.713,78.527 11.118,28.418 28.031,53.292 48.91,71.933 19.313,17.243 39.598,28.902 60.374,34.727 -0.266,1.654 -0.422,3.345 -0.422,5.073 0,15.128 10.518,27.837 24.622,31.22 V 504.51 c 0,4.136 3.353,7.489 7.489,7.489 4.136,0 7.489,-3.353 7.489,-7.489 V 378.167 c 14.105,-3.383 24.622,-16.093 24.622,-31.22 0,-1.728 -0.145,-3.422 -0.41,-5.076 20.751,-5.815 41.043,-17.476 60.362,-34.724 20.879,-18.641 37.791,-43.515 48.91,-71.933 10.28,-26.274 15.713,-53.428 15.713,-78.527 C 412.686,70.289 342.397,0 256,0 Z m 0,364.081 c -9.447,0 -17.134,-7.686 -17.134,-17.134 0,-0.661 0.039,-1.313 0.114,-1.954 5.639,0.824 11.333,1.245 17.027,1.244 5.689,0 11.377,-0.421 17.008,-1.243 0.074,0.641 0.119,1.291 0.119,1.952 0,9.448 -7.687,17.135 -17.134,17.135 z" />
      <path
         style="fill:#f1bdc8;fill-opacity:1"
         id="path12"
         d="m 352.604,119.296 c 0.063,1.243 0.088,2.509 0.073,3.763 -0.05,4.135 3.262,7.529 7.397,7.579 h 0.093 c 4.093,0 7.436,-3.293 7.486,-7.398 0.019,-1.567 -0.012,-3.151 -0.091,-4.708 -1.115,-21.819 -14.54,-42.099 -35.038,-52.927 -3.658,-1.932 -8.188,-0.533 -10.119,3.123 -1.932,3.657 -0.533,8.188 3.123,10.119 15.854,8.376 26.229,23.875 27.076,40.449 z" />
      <path
         style="fill:#f1bdc8;fill-opacity:1"
         id="path14"
         d="m 216.438,147.043 v -23.158 c 0,-4.136 -3.353,-7.489 -7.489,-7.489 -4.136,0 -7.489,3.353 -7.489,7.489 v 23.158 c 0,4.136 3.353,7.489 7.489,7.489 4.137,0 7.489,-3.353 7.489,-7.489 z" />
      <path
         style="fill:#f1bdc8;fill-opacity:1"
         id="path16"
         d="m 310.539,147.043 v -23.158 c 0,-4.136 -3.353,-7.489 -7.489,-7.489 -4.136,0 -7.489,3.353 -7.489,7.489 v 23.158 c 0,4.136 3.353,7.489 7.489,7.489 4.136,0 7.489,-3.353 7.489,-7.489 z" />
      <path
         style="fill:#f1bdc8;fill-opacity:1"
         id="path18"
         d="m 167.112,209.742 c 3.703,19.474 13.479,35.925 29.057,48.897 16.912,14.082 38.208,21.569 59.887,21.568 7.859,0 15.769,-0.984 23.537,-2.994 4.004,-1.036 6.41,-5.122 5.373,-9.126 -1.037,-4.004 -5.125,-6.412 -9.126,-5.373 -24.541,6.35 -50.742,0.526 -70.088,-15.584 -12.84,-10.692 -20.89,-24.212 -23.928,-40.186 -0.181,-0.953 0.237,-1.633 0.503,-1.954 0.265,-0.321 0.855,-0.858 1.822,-0.858 H 327.85 c 0.967,0 1.557,0.537 1.822,0.858 0.266,0.321 0.684,1.001 0.503,1.954 -3.037,15.973 -11.087,29.493 -23.926,40.185 -0.581,0.484 -1.168,0.958 -1.76,1.423 -3.254,2.553 -3.823,7.26 -1.271,10.514 2.553,3.254 7.26,3.822 10.514,1.271 0.706,-0.554 1.405,-1.119 2.099,-1.697 15.578,-12.972 25.354,-29.424 29.057,-48.897 0.969,-5.094 -0.371,-10.307 -3.678,-14.302 -3.306,-3.994 -8.175,-6.285 -13.359,-6.285 H 184.15 c -5.184,0 -10.053,2.291 -13.359,6.285 -3.307,3.994 -4.648,9.207 -3.679,14.301 z" />
    </g>
  </g>
  <g
     style="fill:#f1bdc8;fill-opacity:1"
     transform="matrix(0.07939073,-0.06379245,0.06379245,0.07939073,117.46551,197.20646)"
     id="g157">
    <path
       style="fill:#f1bdc8;fill-opacity:1"
       d="m 443.37891,182.13672 h -153.9375 c -4.14454,0 -7.5,3.35937 -7.5,7.5 0,4.14453 3.35546,7.5 7.5,7.5 h 153.9375 c 4.14453,0 7.5,-3.35547 7.5,-7.5 0,-4.14063 -3.35938,-7.5 -7.5,-7.5 z m 0,0"
       id="path116" />
    <path
       style="fill:#f1bdc8;fill-opacity:1"
       d="m 443.37891,222.32812 h -153.9375 c -4.14454,0 -7.5,3.35547 -7.5,7.5 0,4.14063 3.35546,7.5 7.5,7.5 h 153.9375 c 4.14453,0 7.5,-3.35937 7.5,-7.5 0,-4.14453 -3.35938,-7.5 -7.5,-7.5 z m 0,0"
       id="path118" />
    <path
       style="fill:#f1bdc8;fill-opacity:1"
       d="m 443.37891,262.51562 h -153.9375 c -4.14454,0 -7.5,3.35938 -7.5,7.5 0,4.14454 3.35546,7.5 7.5,7.5 h 153.9375 c 4.14453,0 7.5,-3.35546 7.5,-7.5 0,-4.14062 -3.35938,-7.5 -7.5,-7.5 z m 0,0"
       id="path120" />
    <path
       style="fill:#f1bdc8;fill-opacity:1"
       d="m 443.37891,302.70703 h -153.9375 c -4.14454,0 -7.5,3.35938 -7.5,7.5 0,4.14063 3.35546,7.5 7.5,7.5 h 153.9375 c 4.14453,0 7.5,-3.35937 7.5,-7.5 0,-4.14062 -3.35938,-7.5 -7.5,-7.5 z m 0,0"
       id="path122" />
    <path
       style="fill:#f1bdc8;fill-opacity:1"
       d="m 95.046875,92.925781 c 9.652345,-1.214843 19.253905,-1.828125 28.542965,-1.828125 51.35938,0 85.35938,17.898434 101.05469,28.562504 1.28906,0.8789 2.75781,1.30078 4.20703,1.30078 2.40235,0 4.76172,-1.15235 6.21094,-3.28516 2.32812,-3.42578 1.4375,-8.08984 -1.98828,-10.42187 -17.11719,-11.632816 -54.10938,-31.156254 -109.48438,-31.156254 -9.91015,0 -20.14062,0.65625 -30.410152,1.945313 -4.109376,0.515625 -7.023438,4.265625 -6.507813,8.375 0.515625,4.109375 4.253906,7.023437 8.375,6.507812 z m 0,0"
       id="path124" />
    <path
       style="fill:#f1bdc8;fill-opacity:1"
       d="m 95.046875,142.11328 c 9.652345,-1.21484 19.253905,-1.82812 28.542965,-1.82812 51.35938,0 85.35938,17.89453 101.05469,28.5625 1.28906,0.8789 2.75781,1.29687 4.20703,1.29687 2.40235,0 4.76172,-1.14844 6.21094,-3.28125 2.32812,-3.42969 1.4375,-8.09375 -1.98828,-10.42187 -17.11719,-11.63672 -54.10938,-31.15625 -109.48438,-31.15625 -9.91015,0 -20.14062,0.65234 -30.410152,1.9414 -4.109376,0.51953 -7.023438,4.26953 -6.507813,8.37891 0.515625,4.10937 4.253906,7.02344 8.375,6.50781 z m 0,0"
       id="path126" />
    <path
       style="fill:#f1bdc8;fill-opacity:1"
       d="m 228.85156,219.33203 c 2.40235,0 4.75781,-1.14844 6.21094,-3.28516 2.32812,-3.42578 1.4375,-8.08984 -1.98828,-10.41796 -17.1211,-11.63672 -54.10938,-31.15625 -109.48438,-31.15625 -9.91015,0 -20.14453,0.65234 -30.410152,1.9414 -4.113282,0.51563 -7.023438,4.26563 -6.507813,8.37891 0.515625,4.10937 4.253906,7.01953 8.375,6.5039 9.652345,-1.21093 19.253905,-1.82421 28.542965,-1.82421 51.35938,0 85.35938,17.89453 101.05469,28.5625 1.28906,0.8789 2.75391,1.29687 4.20703,1.29687 z m 0,0"
       id="path128" />
    <path
       style="fill:#f1bdc8;fill-opacity:1"
       d="m 233.07422,254.81641 c -13.75,-9.34766 -43.33985,-25.67579 -87.01563,-30.04688 -4.1289,-0.41797 -7.79687,2.59375 -8.20703,6.71484 -0.41406,4.1211 2.59375,7.79688 6.71485,8.21094 40.375,4.03906 67.5,18.98047 80.07812,27.52735 1.28906,0.8789 2.75391,1.29687 4.20703,1.29687 2.40235,0 4.75781,-1.14844 6.21094,-3.28515 2.32812,-3.42579 1.4375,-8.08985 -1.98828,-10.41797 z m 0,0"
       id="path130" />
    <path
       style="fill:#f1bdc8;fill-opacity:1"
       d="m 109.96875,224.05859 c -5.51953,0.31641 -11.167969,0.83594 -16.789062,1.54297 -4.113282,0.51563 -7.023438,4.26563 -6.507813,8.375 0.476563,3.79297 3.707031,6.56641 7.429687,6.56641 0.3125,0 0.628907,-0.0195 0.945313,-0.0586 5.289065,-0.66406 10.601565,-1.15234 15.789065,-1.45312 4.13672,-0.23828 7.29297,-3.78516 7.05469,-7.92188 -0.23829,-4.13281 -3.78907,-7.30468 -7.92188,-7.05078 z m 0,0"
       id="path132" />
    <path
       style="fill:#f1bdc8;fill-opacity:1"
       d="M 440.10547,90.761719 H 292.71484 c -5.9414,0 -10.77343,4.832031 -10.77343,10.773441 v 39.82812 c 0,5.9375 4.83203,10.76953 10.77343,10.76953 h 20.32813 c 4.14453,0 7.5,-3.35937 7.5,-7.5 0,-4.14062 -3.35547,-7.5 -7.5,-7.5 h -16.10156 v -31.37109 h 138.9375 v 31.37109 h -87.9375 c -4.14453,0 -7.5,3.35938 -7.5,7.5 0,4.14063 3.35547,7.5 7.5,7.5 h 92.16406 c 5.9414,0 10.77344,-4.83203 10.77344,-10.76953 v -39.82812 c 0,-5.94141 -4.83203,-10.773441 -10.77344,-10.773441 z m 0,0"
       id="path134" />
    <path
       style="fill:#f1bdc8;fill-opacity:1"
       d="M 499.83594,85.75 H 484.32031 V 58.382812 c 0,-8.132812 -6.61719,-14.75 -14.75,-14.75 H 258.78906 C 253.07422,38.890625 236.94922,26.695312 211.14844,16.355469 181.76562,4.582031 133.58984,-6.929688 70.960938,5.097656 64.304688,6.375 59.472656,12.222656 59.472656,19 v 24.632812 h -20 c -6.503906,0 -11.792968,5.292969 -11.792968,11.792969 V 85.75 H 12.164062 C 5.457031,85.75 0,91.207031 0,97.914062 V 389.07812 c 0,6.70704 5.457031,12.16797 12.164062,12.16797 H 211.67578 c 1.3125,0 2.5625,0.625 3.34375,1.67969 3.60156,4.83594 9.34766,7.72656 15.37891,7.72656 h 51.20312 c 6.02735,0 11.77735,-2.89062 15.37891,-7.72656 0.78125,-1.05078 2.03515,-1.67969 3.34375,-1.67969 h 199.51172 c 6.70703,0 12.16406,-5.46093 12.16406,-12.16797 V 97.914062 C 512,91.207031 506.54297,85.75 499.83594,85.75 Z M 263.5,58.632812 H 469.32031 V 360.10156 H 263.5 Z M 74.472656,19.699219 C 132.83984,8.640625 177.58594,19.183594 204.88281,30.003906 228.09375,39.207031 242.99609,50.164062 248.5,54.605469 V 352.44922 c -19.77734,-13.42969 -62.33203,-36.03125 -124.75781,-36.03125 -15.25,0 -31.695315,1.35156 -49.269534,4.51172 z M 42.679688,58.632812 H 59.472656 V 321.95703 c 0,4.21094 1.855469,8.17578 5.09375,10.875 3.230469,2.6875 7.445313,3.79688 11.574219,3.03906 57.835935,-10.60937 102.167965,0.008 129.171875,10.78516 11.09375,4.42969 20.20703,9.19141 27.29687,13.44141 H 42.679688 Z M 497,386.24609 H 300.32422 c -6.02735,0 -11.77735,2.88672 -15.37891,7.72266 -0.78125,1.05469 -2.03515,1.68359 -3.34375,1.68359 h -51.20312 c -1.3125,0 -2.5625,-0.6289 -3.34375,-1.67968 -3.60157,-4.83985 -9.35157,-7.72657 -15.37891,-7.72657 H 15 V 100.75 h 12.679688 v 262.55859 c 0,6.5 5.292968,11.79297 11.792968,11.79297 H 469.57031 c 8.13281,0 14.75,-6.61719 14.75,-14.7539 V 100.75 H 497 Z m 0,0"
       id="path136" />
  </g>
  <g
     style="fill:#f1bdc8;fill-opacity:1"
     transform="matrix(0.12224858,0,0,0.12224858,191.88,26.771984)"
     id="g165">
    <path
       style="fill:#f1bdc8;fill-opacity:1"
       d="m 138.11,236.743 7.482,-19.645 h 49.784 l 7.406,19.623 c 1.464,3.88 5.794,5.829 9.665,4.368 3.875,-1.462 5.831,-5.789 4.368,-9.665 l -37.088,-98.277 c -0.025,-0.068 -0.053,-0.137 -0.081,-0.205 -1.511,-3.674 -5.053,-6.046 -9.024,-6.046 h -0.011 c -3.977,0.004 -7.519,2.386 -9.023,6.065 -0.022,0.057 -0.045,0.113 -0.066,0.169 l -37.429,98.273 c -1.475,3.87 0.469,8.203 4.34,9.678 3.865,1.478 8.203,-0.467 9.677,-4.338 z m 32.489,-85.302 19.117,50.657 h -38.411 z"
       id="path159" />
    <path
       style="fill:#f1bdc8;fill-opacity:1"
       d="m 408.12,277.277 h 9.25 c 4.143,0 7.5,-3.357 7.5,-7.5 0,-4.143 -3.357,-7.5 -7.5,-7.5 -9.524,0 -27.212,0 -35.07,0 v -5.271 c 0,-4.143 -3.357,-7.5 -7.5,-7.5 -4.143,0 -7.5,3.357 -7.5,7.5 v 5.271 h -35.07 c -4.143,0 -7.5,3.357 -7.5,7.5 0,4.143 3.357,7.5 7.5,7.5 h 60.8 c -2.745,22.387 -10.027,39.185 -22.233,50.919 -5.265,-5.269 -8.314,-12.349 -9.596,-21.607 -0.568,-4.104 -4.358,-6.974 -8.457,-6.4 -4.104,0.567 -6.969,4.354 -6.4,8.457 1.759,12.709 6.294,21.916 12.353,28.625 -7.891,4.574 -17.139,7.826 -27.829,9.8 -4.073,0.752 -6.766,4.664 -6.013,8.737 0.667,3.613 3.819,6.139 7.366,6.139 0.452,0 0.91,-0.041 1.371,-0.126 14.631,-2.702 27.215,-7.674 37.669,-14.819 9.942,5.346 21.242,7.336 30.974,8.287 0.248,0.023 0.494,0.036 0.738,0.036 3.813,0 7.077,-2.897 7.456,-6.771 0.402,-4.122 -2.613,-7.791 -6.735,-8.194 -7.774,-0.76 -14.327,-2.103 -19.799,-4.126 1.818,-1.933 3.54,-3.96 5.157,-6.089 10.382,-13.667 16.637,-31.023 19.068,-52.868 z"
       id="path161" />
    <path
       style="fill:#f1bdc8;fill-opacity:1"
       d="m 504.5,349.387 c 4.143,0 7.5,-3.357 7.5,-7.5 V 217.429 c 0,-10.668 -8.68,-19.348 -19.348,-19.348 H 340.901 V 73.301 c 0,-12.343 -10.041,-22.384 -22.384,-22.384 H 83.764 c -4.143,0 -7.5,3.357 -7.5,7.5 0,4.143 3.357,7.5 7.5,7.5 h 234.754 c 4.071,0 7.384,3.312 7.384,7.384 v 124.78 h -68.954 c -10.668,0 -19.347,8.679 -19.347,19.347 v 85.125 h -99.856 c -8.251,0 -15.912,4.796 -19.517,12.217 L 96.577,359.337 74.927,314.771 C 71.323,307.349 63.661,302.553 55.41,302.553 H 22.383 C 18.312,302.553 15,299.241 15,295.169 V 73.301 c 0,-4.071 3.312,-7.384 7.384,-7.384 h 31.393 c 4.143,0 7.5,-3.357 7.5,-7.5 0,-4.143 -3.357,-7.5 -7.5,-7.5 H 22.384 C 10.041,50.917 0,60.958 0,73.301 v 221.868 c 0,12.343 10.041,22.384 22.383,22.384 h 33.026 c 2.547,0 4.911,1.48 6.024,3.771 l 23.858,49.11 c 2.116,4.357 6.44,7.064 11.285,7.064 4.844,0 9.168,-2.707 11.284,-7.063 l 23.858,-49.112 c 1.113,-2.29 3.478,-3.771 6.024,-3.771 h 99.856 v 76.47 c 0,10.668 8.679,19.347 19.347,19.347 h 26.287 c 1.445,0 2.786,0.84 3.418,2.14 l 18.989,39.09 c 1.942,4 5.912,6.484 10.358,6.484 4.447,0 8.417,-2.484 10.359,-6.484 l 18.988,-39.089 c 0.633,-1.3 1.975,-2.141 3.42,-2.141 H 492.65 c 10.668,0 19.347,-8.679 19.347,-19.347 v -22.148 c 0,-4.143 -3.357,-7.5 -7.5,-7.5 -4.143,0 -7.5,3.357 -7.5,7.5 v 22.148 c 0,2.396 -1.95,4.347 -4.347,4.347 H 348.768 c -7.147,0 -13.785,4.154 -16.911,10.585 l -15.855,32.64 -15.856,-32.64 c -3.124,-6.43 -9.762,-10.585 -16.91,-10.585 h -26.287 c -2.396,0 -4.347,-1.95 -4.347,-4.347 V 217.428 c 0,-2.396 1.95,-4.347 4.347,-4.347 h 235.705 c 2.397,0 4.348,1.95 4.348,4.348 v 124.458 c -0.002,4.142 3.355,7.5 7.498,7.5 z"
       id="path163" />
  </g>
  <g
     style="fill:#f1bdc8;fill-opacity:1"
     transform="matrix(0.10668942,0,0,0.10668942,43.298964,251.62137)"
     id="g207">
    <path
       style="fill:#f1bdc8;fill-opacity:1"
       d="M 331.28125,35.382812 H 180.05078 c -11.35156,0 -20.58594,9.234376 -20.58594,20.585938 v 151.23437 c 0,11.35157 9.23438,20.58204 20.58594,20.58204 h 151.23047 c 11.35156,0 20.58594,-9.23047 20.58594,-20.58204 v -29.92187 c 0,-4.14453 -3.35938,-7.50391 -7.50391,-7.50391 -4.14453,0 -7.50781,3.35938 -7.50781,7.50391 v 29.92187 c 0,3.07422 -2.5,5.57422 -5.57422,5.57422 H 180.05078 c -3.07422,0 -5.57812,-2.5 -5.57812,-5.57422 V 55.96875 c 0,-3.074219 2.5039,-5.574219 5.57812,-5.574219 h 151.23047 c 3.07422,0 5.57422,2.5 5.57422,5.574219 v 86.62109 c 0,4.14453 3.36328,7.50782 7.50781,7.50782 4.14453,0 7.50391,-3.36329 7.50391,-7.50782 V 55.96875 c 0,-11.351562 -9.23438,-20.585938 -20.58594,-20.585938 z m 0,0"
       id="path178" />
    <path
       style="fill:#f1bdc8;fill-opacity:1"
       d="m 55.96875,476.37891 h 18.828125 c 4.144531,0 7.503906,-3.35938 7.503906,-7.50391 0,-4.14453 -3.359375,-7.50391 -7.503906,-7.50391 H 55.96875 c -3.074219,0 -5.574219,-2.5039 -5.574219,-5.57422 V 304.5625 c 0,-3.07422 2.5,-5.57422 5.574219,-5.57422 h 151.23047 c 3.07422,0 5.57812,2.5 5.57812,5.57422 v 151.23437 c 0,3.07032 -2.5039,5.57422 -5.57812,5.57422 h -97.62891 c -4.14453,0 -7.5039,3.35938 -7.5039,7.50391 0,4.14453 3.35937,7.50391 7.5039,7.50391 h 97.63281 c 11.35157,0 20.58204,-9.23438 20.58204,-20.58204 V 304.5625 c 0,-11.35156 -9.23047,-20.58594 -20.58204,-20.58594 H 55.96875 c -11.351562,0 -20.585938,9.23438 -20.585938,20.58594 v 151.23437 c 0,11.34766 9.234376,20.58204 20.585938,20.58204 z m 0,0"
       id="path180" />
    <path
       style="fill:#f1bdc8;fill-opacity:1"
       d="m 477.41016,248.59375 h -96.56641 c 4.02734,-5.65234 6.40625,-12.55859 6.40625,-20.01563 V 34.589844 C 387.25,15.519531 371.73047,0 352.66016,0 H 158.67188 C 139.59766,0 124.08203,15.519531 124.08203,34.589844 V 228.57812 c 0,7.45704 2.37891,14.35938 6.40235,20.01563 H 34.589844 C 15.519531,248.59375 0,264.10937 0,283.18359 v 193.98828 c 0,19.07422 15.519531,34.58985 34.589844,34.58985 H 228.57813 c 11.15625,0 21.09375,-5.3125 27.42187,-13.53906 6.32812,8.22656 16.26562,13.53906 27.42187,13.53906 H 477.41016 C 496.48437,511.76172 512,496.24609 512,477.17187 V 283.18359 c 0,-19.07422 -15.51953,-34.58984 -34.58984,-34.58984 z m -229.25,228.57812 c 0,10.79688 -8.78516,19.58204 -19.58204,19.58204 H 34.589844 c -10.796875,0 -19.578125,-8.78516 -19.578125,-19.58204 V 283.18359 c 0,-10.79687 8.78125,-19.58203 19.578125,-19.58203 H 248.16016 Z M 158.67187,248.16016 c -10.79687,0 -19.58203,-8.78516 -19.58203,-19.58204 V 34.589844 c 0,-10.796875 8.78516,-19.578125 19.58203,-19.578125 h 193.98829 c 10.79687,0 19.58203,8.78125 19.58203,19.578125 V 228.57812 c 0,10.79688 -8.78516,19.58204 -19.58203,19.58204 z m 338.31641,229.01171 c 0,10.79688 -8.78125,19.58204 -19.57812,19.58204 H 283.42187 c -10.79687,0 -19.58203,-8.78516 -19.58203,-19.58204 v -213.5664 h 213.57032 c 10.79687,0 19.57812,8.78125 19.57812,19.57812 z m 0,0"
       id="path182" />
    <path
       style="fill:#f1bdc8;fill-opacity:1"
       d="M 456.03125,283.97656 H 304.79687 c -11.35156,0 -20.58203,9.23438 -20.58203,20.58594 v 151.23437 c 0,11.34766 9.23047,20.58204 20.58203,20.58204 h 151.23438 c 11.35156,0 20.58594,-9.23438 20.58594,-20.58204 V 304.5625 c 0,-11.35156 -9.23438,-20.58594 -20.58594,-20.58594 z m 5.57422,171.82031 c 0,3.07032 -2.5,5.57422 -5.57422,5.57422 H 304.79687 c -3.07421,0 -5.57421,-2.5039 -5.57421,-5.57422 V 304.5625 c 0,-3.07422 2.5,-5.57422 5.57421,-5.57422 h 151.23438 c 3.07422,0 5.57422,2.5 5.57422,5.57422 z m 0,0"
       id="path184" />
    <path
       style="fill:#f1bdc8;fill-opacity:1"
       d="m 213.73047,181.82812 c 0,-0.47656 0,-0.94921 0.16015,-1.42187 L 245.33203,78.011719 c 1.26563,-3.792969 5.84766,-5.691407 10.58984,-5.691407 4.73829,0 9.48047,1.898438 10.74219,5.691407 l 31.28906,102.394531 c 0.15625,0.47266 0.31641,0.94531 0.31641,1.42187 0,3.94922 -5.84766,6.95313 -10.58594,6.95313 -2.6875,0 -4.90234,-0.94922 -5.6914,-3.47656 l -6.47657,-22.44141 h -39.03125 l -6.48046,22.44141 c -0.78907,2.52734 -3,3.47656 -5.84766,3.47656 -4.57813,0 -10.42578,-2.84766 -10.42578,-6.95313 z m 57.99219,-32.39453 -15.80078,-54.199215 -15.80079,54.199215 z m 0,0"
       id="path186" />
    <path
       style="fill:#f1bdc8;fill-opacity:1"
       d="m 92.347656,327.96484 c 0,-3.63672 3.632813,-5.53125 7.425782,-5.53125 h 28.757812 c 16.91016,0 31.92187,5.05469 31.92187,27.33594 0,13.11719 -5.21484,21.96484 -13.43359,25.59766 9.79688,3.79297 16.27734,10.27344 16.27734,26.39062 v 3 c 0,24.4961 -13.74609,33.1836 -31.44531,33.1836 H 99.773438 c -4.582032,0 -7.425782,-2.52735 -7.425782,-5.3711 z m 16.589844,40.76563 h 18.80469 c 10.74609,0 15.96093,-5.53125 15.96093,-16.27344 0,-10.58984 -6.32031,-15.17187 -16.27734,-15.17187 H 108.9375 Z m 19.75391,54.35937 c 11.21875,0 17.85546,-6.0039 17.85546,-19.59375 v -2.52734 c 0,-13.90625 -6.63671,-18.96484 -17.85546,-18.96484 H 108.9375 v 41.08593 z m 0,0"
       id="path188" />
    <path
       style="fill:#f1bdc8;fill-opacity:1"
       d="m 380.11719,337.28516 c -12.16797,0 -18.96094,6.48046 -18.96094,20.38671 v 45.98047 c 0,13.90625 6.79297,20.38282 19.27734,20.38282 16.11719,0 17.53907,-10.90235 18.17188,-17.85157 0.3164,-4.10937 3.63281,-5.53125 8.21484,-5.53125 5.84766,0 8.53516,1.73828 8.53516,8.69141 0,17.37891 -14.38281,29.54687 -36.03125,29.54687 -19.11719,0 -34.92188,-9.63671 -34.92188,-35.23828 v -45.98047 c 0,-25.60156 15.96094,-35.23828 35.08203,-35.23828 21.64844,0 35.8711,11.85157 35.8711,28.60157 0,7.10937 -2.6875,8.6914 -8.375,8.6914 -5.0586,0 -8.21875,-1.73828 -8.375,-5.53125 -0.31641,-5.53125 -2.21094,-16.91015 -18.48828,-16.91015 z m 0,0"
       id="path190" />
  </g>
  <g
     style="fill:#f1bdc8;fill-opacity:1"
     transform="matrix(0.07532726,0.03027843,-0.03027843,0.07532726,212.11625,116.86854)"
     id="g219">
    <path
       style="fill:#f1bdc8;fill-opacity:1"
       d="m 255.794,138.482 c -1.516,-3.684 -5.067,-6.062 -9.05,-6.062 h -0.01 c -3.986,0.004 -7.538,2.391 -9.047,6.08 -0.023,0.057 -0.046,0.113 -0.067,0.171 l -37.855,99.396 c -1.475,3.87 0.469,8.203 4.34,9.678 3.865,1.475 8.203,-0.468 9.678,-4.34 l 7.588,-19.923 h 50.472 l 7.511,19.902 c 1.464,3.88 5.794,5.829 9.665,4.368 3.875,-1.462 5.831,-5.789 4.368,-9.665 l -37.512,-99.399 c -0.026,-0.07 -0.054,-0.138 -0.081,-0.206 z m -28.711,69.999 19.639,-51.563 19.459,51.563 z"
       id="path209" />
    <path
       style="fill:#f1bdc8;fill-opacity:1"
       d="m 300.702,156.369 v -4.529 h 4.529 c 4.143,0 7.5,-3.357 7.5,-7.5 0,-4.143 -3.357,-7.5 -7.5,-7.5 h -4.529 v -4.53 c 0,-4.143 -3.357,-7.5 -7.5,-7.5 -4.143,0 -7.5,3.357 -7.5,7.5 v 4.53 h -4.529 c -4.143,0 -7.5,3.357 -7.5,7.5 0,4.143 3.357,7.5 7.5,7.5 h 4.529 v 4.529 c 0,4.143 3.357,7.5 7.5,7.5 4.143,0 7.5,-3.357 7.5,-7.5 z"
       id="path211" />
    <path
       style="fill:#f1bdc8;fill-opacity:1"
       d="m 263.502,395.144 v -15.067 c 0,-4.143 -3.357,-7.5 -7.5,-7.5 -4.143,0 -7.5,3.357 -7.5,7.5 v 15.067 c 0,4.143 3.357,7.5 7.5,7.5 4.143,0 7.5,-3.358 7.5,-7.5 z"
       id="path213" />
    <path
       style="fill:#f1bdc8;fill-opacity:1"
       d="m 359.092,185.334 c 0.047,4.113 3.396,7.415 7.498,7.415 h 0.087 c 4.142,-0.047 7.461,-3.443 7.414,-7.585 C 373.362,120.49 320.793,68.417 256.002,68.417 c -65.123,0 -118.104,52.981 -118.104,118.105 0,65.124 52.981,118.105 118.104,118.105 53.444,0 100.373,-36.029 114.123,-87.617 1.066,-4.003 -1.313,-8.112 -5.315,-9.179 -4.005,-1.069 -8.111,1.313 -9.179,5.315 -12.002,45.03 -52.971,76.48 -99.629,76.48 -56.852,0 -103.104,-46.253 -103.104,-103.105 0,-56.852 46.252,-103.104 103.104,-103.104 56.45,0 102.452,45.362 103.09,101.917 z"
       id="path215" />
    <path
       style="fill:#f1bdc8;fill-opacity:1"
       d="m 413.231,300.768 c 12.719,-17.478 4.941,-43.22 10.326,-59.803 5.101,-15.715 26.785,-32.273 26.785,-54.442 0,-22.182 -21.68,-38.717 -26.785,-54.441 -5.392,-16.607 2.399,-42.317 -10.326,-59.804 C 400.39,54.636 373.464,54.158 359.533,44.018 345.771,34.004 337.018,8.45 316.068,1.65 c -20.303,-6.597 -42.292,8.744 -60.066,8.744 -17.796,0 -39.753,-15.344 -60.065,-8.745 -20.959,6.806 -29.696,32.35 -43.464,42.369 -3.024,2.201 -6.914,4.13 -12.612,6.253 -3.882,1.447 -5.855,5.766 -4.408,9.647 1.445,3.882 5.766,5.854 9.646,4.409 7.029,-2.62 12.026,-5.144 16.2,-8.181 15.886,-11.561 24.502,-35.437 39.271,-40.23 14.077,-4.574 35.186,9.478 55.433,9.478 20.232,0 41.36,-14.046 55.435,-9.478 14.773,4.796 23.36,28.654 39.27,40.23 15.984,11.632 41.392,12.585 50.396,24.957 8.893,12.221 2.016,36.599 8.188,55.609 5.999,18.47 26.053,33.938 26.053,49.81 0,15.947 -20.01,31.204 -26.053,49.811 -6.173,19.012 0.708,43.385 -8.188,55.608 -9.007,12.377 -34.375,13.298 -50.396,24.957 -15.877,11.553 -24.505,35.438 -39.271,40.23 -14.08,4.578 -35.178,-9.478 -55.434,-9.478 -20.232,0 -41.358,14.047 -55.433,9.478 -14.779,-4.797 -23.352,-28.646 -39.271,-40.23 -15.984,-11.632 -41.392,-12.585 -50.396,-24.957 -8.894,-12.22 -2.015,-36.593 -8.188,-55.609 -5.999,-18.47 -26.052,-33.938 -26.052,-49.81 0,-15.94 20.011,-31.211 26.052,-49.81 6.176,-19.023 -0.709,-43.384 8.188,-55.61 1.7,-2.337 4.096,-4.399 7.322,-6.308 3.565,-2.107 4.748,-6.707 2.64,-10.272 -2.107,-3.566 -6.709,-4.746 -10.272,-2.64 -5.024,2.97 -8.891,6.37 -11.818,10.395 -12.718,17.475 -4.941,43.217 -10.327,59.803 -5.114,15.754 -26.784,32.251 -26.784,54.442 0,22.19 21.675,38.702 26.784,54.442 5.388,16.59 -2.391,42.328 10.327,59.803 8.763,12.04 23.787,15.944 37.752,20.81 L 83.556,440.102 c -1.084,2.427 -0.804,5.245 0.737,7.409 1.54,2.165 4.104,3.356 6.76,3.123 l 71.481,-6.209 35.157,63.704 c 1.32,2.392 3.836,3.876 6.566,3.876 h 0.038 c 2.745,-0.014 5.263,-1.526 6.564,-3.942 l 19.658,-36.487 c 1.965,-3.646 0.602,-8.195 -3.045,-10.16 -3.649,-1.965 -8.196,-0.602 -10.16,3.045 l -13.135,24.38 -30.868,-55.933 c -1.433,-2.595 -4.262,-4.112 -7.216,-3.848 l -63.645,5.528 47.827,-107.013 c 15.591,9.468 23.702,36.693 45.659,43.821 20.321,6.603 42.266,-8.744 60.065,-8.744 14.522,0 32.261,10.398 49.155,10.396 30.341,0 38.709,-34.626 56.57,-45.473 l 47.827,107.013 -63.645,-5.528 c -2.966,-0.275 -5.783,1.252 -7.216,3.848 l -30.868,55.933 -37.759,-70.083 c -2.791,-5.181 -8.181,-8.398 -14.064,-8.398 -5.885,0 -11.274,3.218 -14.065,8.398 l -10.24,19.005 c -1.965,3.646 -0.602,8.195 3.045,10.16 3.646,1.964 8.194,0.6 10.16,-3.045 l 10.24,-19.005 c 0.373,-0.689 1.342,-0.698 1.72,0 l 44.282,82.19 c 1.302,2.416 3.819,3.929 6.564,3.942 h 0.038 c 2.73,0 5.246,-1.484 6.566,-3.876 l 35.157,-63.704 71.481,6.209 c 2.646,0.231 5.219,-0.958 6.76,-3.123 1.541,-2.164 1.821,-4.982 0.737,-7.409 L 375.473,321.578 c 13.951,-4.859 28.987,-8.761 37.758,-20.81 z"
       id="path217" />
  </g>
  <g
     style="fill:#f1bdc8;fill-opacity:1"
     transform="matrix(0.09570587,0,0,0.09570587,59.207707,115.93076)"
     id="g238">
    <path
       style="fill:#f1bdc8;fill-opacity:1"
       id="path234"
       d="m 452.48,123.7 c -4.142,0 -7.5,3.357 -7.5,7.5 v 207.2 h -60.26 v -2.6 c 0,-9.704 -7.896,-17.6 -17.6,-17.6 h -46.04 c -4.142,0 -7.5,3.357 -7.5,7.5 0,4.143 3.358,7.5 7.5,7.5 h 46.04 c 1.434,0 2.6,1.166 2.6,2.6 v 20.21 c 0,1.434 -1.167,2.601 -2.6,2.601 H 144.88 c -1.434,0 -2.6,-1.167 -2.6,-2.601 V 335.8 c 0,-1.434 1.167,-2.6 2.6,-2.6 h 141 c 4.142,0 7.5,-3.357 7.5,-7.5 0,-4.143 -3.358,-7.5 -7.5,-7.5 h -141 c -9.705,0 -17.6,7.896 -17.6,17.6 v 2.601 H 67.02 V 273.6 c 0,-4.143 -3.358,-7.5 -7.5,-7.5 -4.142,0 -7.5,3.357 -7.5,7.5 v 72.3 c 0,4.143 3.358,7.5 7.5,7.5 h 67.76 v 2.609 c 0,9.705 7.896,17.601 17.6,17.601 h 19.976 l -28.31,129.285 c -0.486,2.219 0.06,4.537 1.483,6.307 1.424,1.769 3.572,2.798 5.843,2.798 h 34.345 c 3.524,0 6.573,-2.453 7.326,-5.896 L 214.557,373.61 h 16.77 V 504.5 c 0,4.143 3.358,7.5 7.5,7.5 h 34.346 c 4.142,0 7.5,-3.357 7.5,-7.5 V 373.61 h 16.77 l 29.014,132.494 c 0.753,3.442 3.802,5.896 7.326,5.896 h 34.345 c 2.271,0 4.419,-1.029 5.843,-2.798 1.423,-1.77 1.969,-4.088 1.483,-6.307 L 347.144,373.61 h 19.976 c 9.705,0 17.6,-7.896 17.6,-17.601 V 353.4 h 67.76 c 4.142,0 7.5,-3.357 7.5,-7.5 V 131.2 c 0,-4.142 -3.358,-7.5 -7.5,-7.5 z M 172.182,497 h -18.99 l 27.019,-123.39 h 18.99 z m 93.491,0 H 246.327 V 373.61 h 19.346 z m 93.135,0 h -18.99 L 312.799,373.61 h 18.99 z" />
    <path
       style="fill:#f1bdc8;fill-opacity:1"
       id="path236"
       d="M 452.48,60.61 H 344.313 v -2.603 c 0,-9.705 -7.896,-17.602 -17.602,-17.602 H 283.703 V 7.5 c 0,-4.143 -3.358,-7.5 -7.5,-7.5 h -40.406 c -4.142,0 -7.5,3.357 -7.5,7.5 v 32.906 h -43.008 c -9.706,0 -17.602,7.896 -17.602,17.602 v 2.603 H 59.52 c -4.142,0 -7.5,3.357 -7.5,7.5 V 238.4 c 0,4.143 3.358,7.5 7.5,7.5 4.142,0 7.5,-3.357 7.5,-7.5 V 75.61 h 100.667 v 2.601 c 0,9.706 7.896,17.603 17.602,17.603 h 141.423 c 9.706,0 17.602,-7.896 17.602,-17.603 V 75.61 H 444.98 V 96 c 0,4.143 3.358,7.5 7.5,7.5 4.142,0 7.5,-3.357 7.5,-7.5 V 68.11 c 0,-4.142 -3.358,-7.5 -7.5,-7.5 z M 243.297,15 h 25.406 v 25.406 h -25.406 z m 86.016,63.211 c 0,1.435 -1.167,2.603 -2.602,2.603 H 185.289 c -1.435,0 -2.602,-1.168 -2.602,-2.603 V 58.008 c 0,-1.435 1.167,-2.602 2.602,-2.602 h 141.423 c 1.435,0 2.602,1.167 2.602,2.602 v 20.203 z" />
  </g>
  <path
     style="fill:#f1bdc8;fill-opacity:1;stroke-width:0.108925"
     d="m 283.58641,243.62218 1.84257,-4.53115 c 0.11458,-0.2818 0.0815,-0.60084 -0.0883,-0.85321 -0.16981,-0.25237 -0.45291,-0.40312 -0.76061,-0.40312 -1.73386,0 -3.43179,0.4786 -4.91032,1.38409 l -0.95801,0.58667 c -2.12946,1.30427 -4.76707,1.29119 -6.8837,-0.0339 l -1.80902,-1.13249 c -1.75706,-1.10003 -3.86627,-1.47887 -5.87267,-1.09741 0.57142,-1.75434 0.86638,-3.59833 0.86638,-5.47019 0,-4.73529 -1.85062,-9.18082 -5.21106,-12.5174 -3.32851,-3.30521 -7.73517,-5.11532 -12.4235,-5.12087 -0.0228,0 -0.0458,-7.6e-4 -0.0686,-6.7e-4 -0.002,0 -0.005,2.2e-4 -0.006,2.2e-4 -0.0193,0 -0.0385,-4.3e-4 -0.0578,-3.2e-4 -9.58635,0.0679 -17.44199,7.92219 -17.51149,17.50855 -0.0244,3.36533 0.90222,6.64384 2.67976,9.48111 1.7281,2.75852 4.17824,4.9844 7.08577,6.43701 1.36896,0.68394 2.29646,1.9516 2.55036,3.41795 h -0.38123 c -0.45117,0 -0.81694,0.36576 -0.81694,0.81693 0,0.45117 0.36577,0.81693 0.81694,0.81693 h 0.5091 l 0.53123,5.37361 h -0.24856 c -0.88708,0 -1.60871,0.72163 -1.60871,1.60872 v 2.50307 c 0,0.75322 0.5211,1.38543 1.22127,1.55948 l 0.55572,4.99224 c 0.0813,0.73001 0.69647,1.28052 1.43094,1.28052 h 7.03404 c 0.73448,0 1.34967,-0.55051 1.43094,-1.28052 l 0.55573,-4.99224 c 0.70017,-0.17405 1.22127,-0.80626 1.22127,-1.55948 v -2.50307 c 0,-0.88709 -0.72163,-1.60872 -1.60872,-1.60872 h -0.24856 l 0.53123,-5.37357 h 0.509 c 0.45116,0 0.81693,-0.36576 0.81693,-0.81694 0,-0.45116 -0.36577,-0.81692 -0.81693,-0.81692 h -0.78796 c 0.24312,-1.40077 1.10362,-2.61921 2.3762,-3.32318 l 0.69232,0.45159 c 2.22521,1.4512 5.02653,1.72961 7.49379,0.74473 1.92916,-0.77 4.13238,-0.57186 5.89315,0.53045 l 1.80891,1.13249 c 0.68263,0.42732 1.42463,0.75093 2.20539,0.9617 0.0713,0.0193 0.14302,0.0284 0.2134,0.0284 0.36009,0 0.68981,-0.23997 0.78817,-0.60421 0.11767,-0.43559 -0.14019,-0.88404 -0.57578,-1.00167 -0.62501,-0.16873 -1.21865,-0.42754 -1.76436,-0.76923 l -1.80891,-1.13249 c -2.20082,-1.37778 -4.95433,-1.62571 -7.36581,-0.66291 -1.96423,0.78415 -4.19316,0.56651 -5.96928,-0.57981 2.26258,-1.40797 4.18619,-3.31283 5.61789,-5.58163 0.41262,-0.65387 0.77794,-1.33235 1.09872,-2.02937 1.89518,-0.70572 4.0336,-0.49343 5.75155,0.5821 l 1.80902,1.13237 c 2.64546,1.6561 5.94238,1.67233 8.60384,0.0424 l 0.958,-0.58667 c 0.90593,-0.55486 1.91173,-0.91573 2.95675,-1.06506 l -1.53615,3.7774 c -0.0826,0.20324 -0.0801,0.43111 0.007,0.63242 l 1.5574,3.59569 c -1.35644,0.15556 -2.66637,0.60509 -3.8384,1.3229 l -0.95798,0.58666 c -0.62492,0.38265 -1.30602,0.65585 -2.02437,0.81215 -0.44093,0.0958 -0.72065,0.531 -0.62468,0.97182 0.0831,0.38244 0.42153,0.64353 0.79743,0.64353 0.0575,0 0.11589,-0.006 0.1744,-0.0188 0.89775,-0.19519 1.74911,-0.53678 2.53053,-1.01529 l 0.95799,-0.58666 c 1.22159,-0.7482 2.62453,-1.14361 4.05701,-1.14361 0.30847,0 0.59374,-0.15402 0.7629,-0.41184 0.16927,-0.25783 0.19705,-0.58078 0.0745,-0.86356 z m -39.76675,9.28877 h 1.75664 1.18336 v 5.37357 h -2.40877 z m 7.10027,15.68372 h -6.68657 l -0.51085,-4.58964 h 7.70838 z m 1.74779,-6.22351 h -0.32394 -9.53427 -0.32395 v -2.45277 h 10.18206 v 2.45277 z m -4.27409,-4.08664 v -5.37357 h 0.77652 2.16369 l -0.53124,5.37357 z m 6.12756,-11.88933 c -1.93059,0.96518 -3.21295,2.79031 -3.4796,4.88189 h -1.02662 c 0.10317,-1.56329 0.49386,-2.96569 1.03783,-3.63689 1.24131,-1.53126 2.26728,-3.86454 2.96711,-6.74744 0.10638,-0.43843 -0.16273,-0.88012 -0.60126,-0.98664 -0.43874,-0.10626 -0.88022,0.16284 -0.98664,0.60126 -0.64298,2.64894 -1.55894,4.75969 -2.64862,6.10403 -0.77631,0.95777 -1.29379,2.69915 -1.40708,4.66568 h -1.0033 -1.00331 c -0.11292,-1.96707 -0.62991,-3.70768 -1.40534,-4.66339 -2.20039,-2.71234 -3.61042,-8.46846 -3.59222,-14.6643 0.002,-0.83959 0.0314,-1.68539 0.0858,-2.51388 0.0296,-0.45018 -0.31141,-0.83915 -0.7616,-0.86878 -0.44964,-0.0286 -0.83926,0.31142 -0.86879,0.76161 -0.0567,0.86246 -0.0866,1.74267 -0.0893,2.61625 -0.0195,6.65029 1.49684,12.66565 3.95733,15.69854 0.54289,0.66924 0.93273,2.07056 1.03577,3.63405 h -1.0265 c -0.26621,-2.09222 -1.54707,-3.91627 -3.47513,-4.8796 -2.63892,-1.31831 -4.86284,-3.33865 -6.43145,-5.84271 -1.61209,-2.57345 -2.45255,-5.54808 -2.43045,-8.60201 0.0544,-7.48137 5.33492,-13.79997 12.34585,-15.46075 -0.32569,0.40106 -0.63852,0.85811 -0.9361,1.37103 -1.15722,1.99507 -2.0394,4.7294 -2.55123,7.90727 -0.0718,0.44551 0.23125,0.86476 0.67665,0.93654 0.44528,0.0717 0.86463,-0.23125 0.93641,-0.67665 0.9385,-5.82658 3.19956,-9.92399 5.49852,-9.96419 0.65867,-0.0137 1.32855,0.30912 1.98406,0.9533 2.42379,2.38186 4.05221,8.43077 4.05221,15.05208 0,1.71818 -0.10745,3.41445 -0.31914,5.0418 -0.0581,0.44735 0.25727,0.85734 0.70473,0.91551 0.0359,0.005 0.0713,0.007 0.10638,0.007 0.40421,0 0.75551,-0.29998 0.80909,-0.71161 0.22079,-1.69694 0.33277,-3.46413 0.33277,-5.25257 0,-6.63547 -1.53955,-12.59953 -3.97064,-15.5858 2.8558,0.66553 5.47892,2.10889 7.61296,4.22779 3.04914,3.02767 4.72843,7.06137 4.72843,11.35801 0,3.02973 -0.85027,5.97866 -2.45887,8.52782 -1.56591,2.48163 -3.7786,4.48584 -6.39878,5.79588 z"
     id="path1125" />
  <g
     style="fill:#f1bdc8;fill-opacity:1"
     transform="matrix(0.10156038,0,0,0.10156038,158.38034,281.03858)"
     id="g1143">
    <path
       style="fill:#f1bdc8;fill-opacity:1"
       d="M 497.549,117.773 297.47,1.532 c -3.518,-2.043 -7.887,-2.043 -11.408,0 L 85.985,117.773 c -2.311,1.343 -3.732,3.813 -3.732,6.485 v 22.933 c 0,13.716 11.158,24.874 24.874,24.874 h 22.971 c 6.755,0 12.887,-2.71 17.374,-7.097 4.487,4.386 10.618,7.097 17.374,7.097 h 22.971 c 6.756,0 12.887,-2.71 17.374,-7.097 4.487,4.386 10.618,7.097 17.374,7.097 h 22.971 c 6.755,0 12.887,-2.71 17.374,-7.097 1.509,1.476 3.205,2.758 5.048,3.814 v 98.812 c 0,4.143 3.358,7.5 7.5,7.5 4.142,0 7.5,-3.357 7.5,-7.5 v -95.529 h 17.622 v 154.517 h -17.622 v -27.025 c 0,-4.143 -3.358,-7.5 -7.5,-7.5 -4.142,0 -7.5,3.357 -7.5,7.5 v 27.025 h -24.643 c 4.279,-10.39 6.506,-21.571 6.506,-32.91 0,-47.656 -38.771,-86.427 -86.426,-86.427 -38.736,0 -71.602,25.616 -82.547,60.798 l -22.791,14.981 c -5.345,3.515 -11.544,5.591 -17.928,6.007 l -17.68,1.153 c -5.229,0.342 -9.734,3.353 -12.048,8.055 -2.314,4.702 -1.954,10.107 0.965,14.459 l 4.01,5.98 c 9.744,14.531 25.92,23.054 43.155,23.053 1.831,0 3.675,-0.097 5.522,-0.292 l 25.603,-2.706 c 2.164,3.527 4.577,6.922 7.258,10.142 l -2.546,3.141 C 80.705,368.867 73.18,390.094 73.18,411.788 v 3.472 c 0,27.637 12.005,53.838 32.938,71.884 17.223,14.847 39.231,23.023 61.969,23.023 h 97.168 c 34.462,0 68.232,-11.893 95.088,-33.487 5.201,-4.182 10.205,-8.791 14.874,-13.701 2.854,-3.001 2.735,-7.748 -0.267,-10.603 -3.001,-2.854 -7.748,-2.736 -10.604,0.267 -4.211,4.428 -8.721,8.582 -13.403,12.348 -24.202,19.46 -54.633,30.177 -85.689,30.177 h -97.168 c -19.144,0 -37.673,-6.885 -52.175,-19.385 C 98.286,460.59 88.179,438.53 88.179,415.261 v -3.472 c 0,-18.266 6.335,-36.138 17.839,-50.325 l 6.578,-8.113 c 2.392,-2.95 2.201,-7.223 -0.444,-9.947 -4.754,-4.897 -8.718,-10.367 -11.847,-16.241 -0.011,-0.02 -0.022,-0.039 -0.032,-0.059 -5.418,-10.193 -8.304,-21.609 -8.304,-33.432 0,-39.385 32.042,-71.427 71.426,-71.427 39.384,0 71.426,32.042 71.426,71.427 0,11.492 -2.773,22.783 -8.038,32.91 H 213.59 c -4.142,0 -7.5,3.357 -7.5,7.5 0,4.143 3.358,7.5 7.5,7.5 h 188.412 v 16.838 c 0,24.647 -6.684,48.877 -19.329,70.069 -2.123,3.557 -0.959,8.161 2.597,10.283 3.559,2.123 8.162,0.959 10.284,-2.598 14.031,-23.515 21.448,-50.402 21.448,-77.755 v -18.938 c 0,-7.113 -5.787,-12.9 -12.9,-12.9 H 315.578 V 168.783 c 1.843,-1.056 3.539,-2.339 5.048,-3.814 4.487,4.386 10.618,7.097 17.374,7.097 h 22.971 c 6.755,0 12.887,-2.71 17.374,-7.097 4.487,4.386 10.618,7.097 17.374,7.097 h 22.971 c 6.756,0 12.887,-2.71 17.374,-7.097 4.487,4.386 10.618,7.097 17.374,7.097 h 22.971 c 13.715,0 24.874,-11.158 24.874,-24.874 v -22.933 c -0.002,-2.672 -1.424,-5.143 -3.734,-6.486 z M 62.475,326.523 c -13.699,1.446 -26.972,-4.76 -34.643,-16.198 L 24.325,305.095 41.103,304 c 8.969,-0.585 17.68,-3.503 25.191,-8.44 l 10.836,-7.123 c -0.104,1.732 -0.163,3.477 -0.163,5.235 0,10.651 1.947,21.025 5.638,30.725 z M 390.8,116.759 359.659,78.809 c -2.628,-3.202 -7.355,-3.668 -10.555,-1.04 -3.202,2.628 -3.668,7.354 -1.041,10.556 l 23.332,28.435 H 212.137 l 79.63,-97.042 35.996,43.867 c 1.483,1.807 3.634,2.742 5.802,2.742 1.674,0 3.358,-0.558 4.753,-1.702 3.202,-2.628 3.667,-7.354 1.04,-10.556 L 322.342,33.33 465.943,116.759 Z m -87.548,40.306 h -22.971 c -5.444,0 -9.874,-4.43 -9.874,-9.874 v -15.433 h 42.718 v 15.433 c 10e-4,5.445 -4.428,9.874 -9.873,9.874 z m -185.661,-40.306 143.601,-83.43 -68.46,83.43 z m 12.506,40.306 h -22.971 c -5.444,0 -9.874,-4.43 -9.874,-9.874 v -15.433 h 42.718 v 15.433 c 0.001,5.445 -4.429,9.874 -9.873,9.874 z m 57.718,0 h -22.971 c -5.444,0 -9.874,-4.43 -9.874,-9.874 v -15.433 h 42.719 v 15.433 c 0,5.445 -4.429,9.874 -9.874,9.874 z m 57.719,0 h -22.971 c -5.444,0 -9.874,-4.43 -9.874,-9.874 v -15.433 h 42.718 v 15.433 c 10e-4,5.445 -4.429,9.874 -9.873,9.874 z m 115.437,0 H 338 c -5.444,0 -9.874,-4.43 -9.874,-9.874 v -15.433 h 42.718 v 15.433 c 0,5.445 -4.429,9.874 -9.873,9.874 z m 57.718,0 h -22.971 c -5.444,0 -9.874,-4.43 -9.874,-9.874 v -15.433 h 1.395 c 0.006,0 0.012,10e-4 0.018,10e-4 0.004,0 0.008,-10e-4 0.012,-10e-4 h 41.294 v 15.433 c 0,5.445 -4.43,9.874 -9.874,9.874 z m 57.719,0 h -22.971 c -5.444,0 -9.874,-4.43 -9.874,-9.874 v -15.433 h 42.718 v 15.433 c 0,5.445 -4.429,9.874 -9.873,9.874 z"
       id="path1135" />
    <path
       style="fill:#f1bdc8;fill-opacity:1"
       d="m 134.971,269.629 v 13.947 c 0,4.143 3.358,7.5 7.5,7.5 4.142,0 7.5,-3.357 7.5,-7.5 v -13.947 c 0,-4.143 -3.358,-7.5 -7.5,-7.5 -4.142,0 -7.5,3.357 -7.5,7.5 z"
       id="path1137" />
    <path
       style="fill:#f1bdc8;fill-opacity:1"
       d="m 257.611,440.755 h -43.313 c -4.142,0 -7.5,3.357 -7.5,7.5 0,4.143 3.358,7.5 7.5,7.5 h 43.313 c 38.882,0 70.515,-31.633 70.515,-70.515 v -4.083 c 0,-5.616 -4.569,-10.185 -10.185,-10.185 H 214.298 c -4.142,0 -7.5,3.357 -7.5,7.5 0,4.143 3.358,7.5 7.5,7.5 h 98.823 c -0.394,30.275 -25.144,54.783 -55.51,54.783 z"
       id="path1139" />
    <path
       style="fill:#f1bdc8;fill-opacity:1"
       d="m 179.625,370.973 c -4.142,0 -7.5,3.357 -7.5,7.5 0,4.143 3.358,7.5 7.5,7.5 h 6.421 c 4.142,0 7.5,-3.357 7.5,-7.5 0,-4.143 -3.358,-7.5 -7.5,-7.5 z"
       id="path1141" />
  </g>
  <path
     style="fill:#f1bdc8;fill-opacity:1;stroke-width:0.0655062;stroke-miterlimit:4;stroke-dasharray:none"
     d="m 137.1423,56.07098 c -0.46207,-2.55882 -2.11947,-4.3117 -4.54606,-4.809146 -0.32491,-0.06682 -0.54169,0.04381 -0.66634,0.148306 -0.28804,0.241415 -0.27873,0.58529 -0.2712,0.861578 0.0142,0.519882 0.0435,1.601619 -1.31103,3.309914 -0.93101,1.171178 -1.50669,3.109719 -0.3617,4.987397 -0.15113,0.171143 -0.25399,0.387838 -0.28266,0.631373 l -0.15271,1.326059 c -0.0362,0.307208 0.0502,0.610682 0.24313,0.854635 0.13653,0.1726 0.31493,0.298847 0.51627,0.371158 l -0.94379,8.145205 -2.36433,0.434634 -1.93842,-13.927233 0.73327,-0.101576 c 0.29961,-0.04168 0.57732,0.168351 0.61906,0.468369 l 1.05629,7.58209 c 0.0475,0.340804 0.36227,0.578714 0.70314,0.531231 0.009,-0.0016 0.0182,-0.0025 0.0271,-0.0041 0.32617,-0.05994 0.55016,-0.367072 0.50401,-0.698803 l -1.05627,-7.582016 c -0.13655,-0.980546 -1.04512,-1.667256 -2.02484,-1.530823 l -0.73361,0.101559 -0.0301,-0.2159 c -0.0488,-0.358589 -0.2356,-0.676441 -0.52604,-0.895027 -0.1083,-0.08156 -0.22603,-0.14549 -0.34993,-0.191041 l -0.18789,-1.339569 c -0.087,-0.633584 -0.41731,-1.196045 -0.9302,-1.58349 -0.51183,-0.386732 -1.14254,-0.551808 -1.7759,-0.464889 -5.8e-4,1.06e-4 -8e-4,1.47e-4 -0.002,2.95e-4 -1.3114,0.182467 -2.22752,1.398197 -2.04461,2.708411 l 0.18631,1.340879 c -0.38879,0.283503 -0.61517,0.765514 -0.54884,1.274464 3.5e-4,0.0025 7.2e-4,0.0049 8.2e-4,0.0082 l 0.18667,1.33703 -0.62479,0.0025 c -0.86419,0.0049 -1.56413,0.710759 -1.56003,1.573205 l 0.0328,7.734178 -3.18871,-10.765289 c -0.16668,-0.564369 -0.76166,-0.887937 -1.32649,-0.721052 l -5.64313,1.671702 c -0.273,0.08065 -0.49853,0.263016 -0.63496,0.5137 -0.13643,0.250692 -0.16709,0.539108 -0.0864,0.812588 l 4.56484,15.412112 -0.26098,0.04798 c -0.59526,0.109428 -0.99048,0.682689 -0.88107,1.277862 l 0.21716,1.181274 c 0.2087,1.135288 1.22263,1.923262 2.34374,1.883336 l 4.25749,15.160416 c 0.21433,0.7533 0.92289,1.22089 1.64815,1.08757 l 19.48794,-3.58249 c 0.72931,-0.13406 1.22508,-0.82439 1.15339,-1.60475 l -1.41238,-15.681014 c 1.06202,-0.360554 1.72952,-1.457971 1.52069,-2.59398 L 138.26,71.378721 c -0.10941,-0.595173 -0.68267,-0.990397 -1.27792,-0.880969 l -2.86803,0.527235 0.78142,-6.740818 c 0.0257,-0.0033 0.0516,-0.0057 0.0771,-0.01081 0.18369,-0.03374 0.35794,-0.112507 0.50931,-0.232211 0.24432,-0.193309 0.39848,-0.469311 0.4341,-0.777174 l 0.15325,-1.325404 c 0.0269,-0.233668 -0.0169,-0.464692 -0.12462,-0.668843 1.0653,-1.144475 1.56114,-3.179744 1.19654,-5.197786 z m -16.86233,-1.053708 c -0.088,-0.62981 0.35205,-1.212635 0.98175,-1.302067 0.3044,-0.0416 0.60789,0.03816 0.85479,0.224662 0.24653,0.186332 0.40519,0.45562 0.44695,0.760322 l 0.16582,1.18192 -2.28492,0.317918 z m -0.3613,2.624416 c -0.007,-0.05707 0.0333,-0.111844 0.0871,-0.121981 l 3.49752,-0.486506 c 0.0395,-0.0057 0.0689,0.01146 0.0829,0.02186 0.0161,0.01204 0.036,0.03357 0.0411,0.06936 l 1.25673,9.029179 -2.66861,0.371445 -0.025,-5.823699 c -0.002,-0.417847 -0.16778,-0.810393 -0.46586,-1.105368 -0.29823,-0.295121 -0.69265,-0.456357 -1.10972,-0.453966 l -0.48623,0.0025 z m 5.13702,9.746406 0.71951,5.16952 -3.53141,0.649183 -0.0232,-5.424045 z m -7.1234,-6.668401 c -7.8e-4,-0.173149 0.14582,-0.320489 0.31995,-0.321398 l 2.36862,-0.0099 c 0.11459,-5.9e-4 0.19149,0.05838 0.22707,0.09365 0.0357,0.03529 0.0955,0.111557 0.0962,0.22553 l 0.009,2.114171 -3.01186,0.01261 z m 0.0143,3.360813 3.01195,-0.01253 0.008,1.982479 -3.01202,0.01253 z m 0.0137,3.228694 3.01203,-0.01253 0.0262,6.139037 -2.66067,0.48911 -0.35466,-1.197331 z m -9.92915,-4.325268 1.07071,-0.317394 c 0.32994,-0.09778 0.51814,-0.444525 0.42035,-0.774472 -0.0978,-0.329955 -0.44475,-0.518441 -0.77447,-0.420353 l -1.07057,0.317279 -0.59229,-1.999659 5.30077,-1.57029 4.71957,15.932386 -5.46876,1.005332 -0.44604,-1.506077 1.07234,-0.317607 c 0.32997,-0.09771 0.51822,-0.444533 0.42044,-0.774406 -0.0977,-0.329971 -0.44425,-0.517614 -0.77442,-0.420534 l -1.07234,0.317607 -0.69914,-2.360647 1.07032,-0.317222 c 0.32995,-0.09779 0.51814,-0.444525 0.42034,-0.77448 -0.0978,-0.329946 -0.44469,-0.518195 -0.77448,-0.420353 l -1.07015,0.317124 -0.69914,-2.360566 1.07056,-0.317271 c 0.32996,-0.09778 0.51816,-0.444533 0.42036,-0.77448 -0.0977,-0.329971 -0.44435,-0.518096 -0.77448,-0.420345 l -1.07031,0.31723 z m 28.95994,28.229534 -19.48807,3.58251 c -0.11605,0.0213 -0.19764,-0.10963 -0.22363,-0.20084 l -0.75424,-2.68587 8.73174,-1.60517 c 0.3385,-0.0622 0.56242,-0.38701 0.5002,-0.72552 -0.0622,-0.3385 -0.38702,-0.56242 -0.72552,-0.5002 l -8.84478,1.62595 -1.73061,-6.16241 4.20541,-0.77309 0.46614,2.53569 c 0.12129,0.65981 0.75684,1.09791 1.41673,0.9766 l 10.93143,-2.00953 c 0.66119,-0.12155 1.10043,-0.75723 0.97914,-1.41703 l -0.46613,-2.535691 4.20306,-0.772654 0.57415,6.374995 -8.89538,1.63525 c -0.33851,0.0622 -0.56243,0.38701 -0.5002,0.72552 0.0622,0.33851 0.38701,0.56242 0.72552,0.5002 l 8.78234,-1.61446 0.25033,2.77967 c 0.0106,0.11483 -0.0341,0.24705 -0.13763,0.26608 z m -5.76712,-7.16271 -10.87589,1.99932 -0.60949,-3.315524 10.87596,-1.99934 0.6095,3.315524 z m 5.83827,-12.300915 0.19025,1.034973 c 0.10516,0.571992 -0.27385,1.122646 -0.84477,1.227595 l -0.23811,0.04381 c -2.8e-4,5.8e-5 -5.7e-4,1.07e-4 -8e-4,1.48e-4 l -10.78215,1.982095 c -0.33851,0.06223 -0.56241,0.387092 -0.50019,0.725513 0.0622,0.338422 0.387,0.562429 0.72551,0.500206 l 10.11697,-1.859811 0.35087,3.895269 -4.38197,0.805546 c -0.24825,-0.440128 -0.75686,-0.697166 -1.28197,-0.600635 l -10.9316,2.009567 c -0.52405,0.09634 -0.90711,0.517294 -0.98236,1.016886 l -4.38414,0.805933 -1.05739,-3.765389 9.74456,-1.791349 c 0.33851,-0.06223 0.56241,-0.387101 0.5002,-0.725531 -0.0622,-0.338413 -0.38702,-0.562411 -0.72552,-0.500189 l -10.40973,1.913633 c -4e-4,7.4e-5 -8.1e-4,1.48e-4 -0.002,2.95e-4 l -0.23544,0.04332 c -0.57223,0.105195 -1.12333,-0.274479 -1.22848,-0.846463 l -0.19026,-1.034973 0.79638,-0.146399 z m -4.22913,-0.489683 -2.18502,0.401675 0.89626,-7.735128 2.11048,0.244011 z m 1.85545,-8.224591 -0.2707,-0.03136 c -1.8e-4,-5.7e-5 -3.1e-4,-1.15e-4 -6e-4,-5.7e-5 l -1.6402,-0.189608 -1.97871,-0.22874 0.13304,-1.155693 3.89075,0.450445 z m 0.12543,-2.41062 -3.56755,-0.413033 c -1.3398,-1.793576 -0.28894,-3.394646 0.0772,-3.855171 1.35309,-1.706519 1.56075,-2.986256 1.58265,-3.725887 2.23951,0.733883 2.84873,2.770921 3.00964,3.661723 0.3145,1.742539 -0.16625,3.585139 -1.10194,4.332368 z"
     id="path1157" />
  <g
     style="fill:#f1bdc8;fill-opacity:1"
     transform="matrix(0.087155,-0.01576965,0.01576965,0.087155,9.3152562,197.39663)"
     id="g1302">
    <g
       style="fill:#f1bdc8;fill-opacity:1"
       id="g1236">
	<g
   style="fill:#f1bdc8;fill-opacity:1"
   id="g1234">
		<path
   style="fill:#f1bdc8;fill-opacity:1"
   d="m 362.297,227.12 c -2.845,-2.846 -7.458,-2.846 -10.306,0 L 134.947,444.164 67.835,377.052 97.776,347.112 c 2.845,-2.845 2.845,-7.459 0,-10.305 -2.845,-2.846 -7.459,-2.846 -10.305,0 l -35.084,35.084 c -0.003,0.003 -0.007,0.006 -0.01,0.009 l -0.275,0.275 c -0.688,0.688 -1.232,1.508 -1.598,2.41 L 0.997,496.469 c -1.905,4.208 -1.038,9.002 2.248,12.287 2.129,2.13 4.895,3.244 7.723,3.244 1.533,0 3.084,-0.327 4.564,-0.996 l 121.882,-49.508 c 0.902,-0.367 1.722,-0.91 2.411,-1.599 l 0.275,-0.275 222.197,-222.197 c 2.845,-2.846 2.845,-7.459 0,-10.305 z M 17.543,494.457 60.03,389.858 l 62.111,62.111 z"
   id="path1232" />

	</g>

</g>
    <g
       style="fill:#f1bdc8;fill-opacity:1"
       id="g1242">
	<g
   style="fill:#f1bdc8;fill-opacity:1"
   id="g1240">
		<path
   style="fill:#f1bdc8;fill-opacity:1"
   d="m 501.509,10.492 c -13.99,-13.989 -36.75,-13.989 -50.741,0 l -31.177,31.178 -6.952,-6.952 c -3.082,-3.083 -7.179,-4.78 -11.539,-4.78 -4.358,0 -8.456,1.697 -11.539,4.779 l -270.069,270.07 c -2.845,2.845 -2.845,7.459 0,10.305 1.423,1.423 3.288,2.134 5.153,2.134 1.865,0 3.73,-0.712 5.153,-2.134 l 204.907,-204.908 67.112,67.112 -17.885,17.885 c -2.845,2.845 -2.845,7.459 0,10.305 2.846,2.845 7.459,2.846 10.306,0 l 36.447,-36.447 18.807,18.806 c 0.746,0.746 0.858,1.617 0.858,2.07 0,0.453 -0.112,1.324 -0.859,2.071 L 317.113,324.361 c -2.845,2.845 -2.845,7.459 0,10.305 1.423,1.423 3.288,2.134 5.153,2.134 1.864,0 3.73,-0.712 5.153,-2.134 L 459.795,202.29 c 3.306,-3.306 5.126,-7.701 5.126,-12.376 0,-4.675 -1.821,-9.07 -5.126,-12.375 l -18.806,-18.806 36.293,-36.294 c 3.083,-3.082 4.78,-7.18 4.78,-11.539 0,-4.359 -1.697,-8.457 -4.779,-11.539 l -6.952,-6.952 31.178,-31.178 c 13.988,-13.989 13.988,-36.75 0,-50.739 z M 412.121,166.99 345.009,99.878 371.83,73.057 l 67.111,67.111 z m 54.856,-54.856 -17.731,17.731 -67.112,-67.112 17.731,-17.731 c 0.423,-0.423 0.905,-0.511 1.234,-0.511 0.33,0 0.811,0.089 1.233,0.511 l 64.645,64.644 c 0.422,0.422 0.51,0.904 0.51,1.233 0.002,0.33 -0.086,0.812 -0.51,1.235 z m 24.227,-61.208 -31.178,31.178 -30.13,-30.13 31.177,-31.178 c 8.307,-8.307 21.825,-8.307 30.13,0 8.307,8.308 8.307,21.823 0.001,30.13 z"
   id="path1238" />

	</g>

</g>
    <g
       style="fill:#f1bdc8;fill-opacity:1"
       id="g1244">
</g>
    <g
       style="fill:#f1bdc8;fill-opacity:1"
       id="g1246">
</g>
    <g
       style="fill:#f1bdc8;fill-opacity:1"
       id="g1248">
</g>
    <g
       style="fill:#f1bdc8;fill-opacity:1"
       id="g1250">
</g>
    <g
       style="fill:#f1bdc8;fill-opacity:1"
       id="g1252">
</g>
    <g
       style="fill:#f1bdc8;fill-opacity:1"
       id="g1254">
</g>
    <g
       style="fill:#f1bdc8;fill-opacity:1"
       id="g1256">
</g>
    <g
       style="fill:#f1bdc8;fill-opacity:1"
       id="g1258">
</g>
    <g
       style="fill:#f1bdc8;fill-opacity:1"
       id="g1260">
</g>
    <g
       style="fill:#f1bdc8;fill-opacity:1"
       id="g1262">
</g>
    <g
       style="fill:#f1bdc8;fill-opacity:1"
       id="g1264">
</g>
    <g
       style="fill:#f1bdc8;fill-opacity:1"
       id="g1266">
</g>
    <g
       style="fill:#f1bdc8;fill-opacity:1"
       id="g1268">
</g>
    <g
       style="fill:#f1bdc8;fill-opacity:1"
       id="g1270">
</g>
    <g
       style="fill:#f1bdc8;fill-opacity:1"
       id="g1272">
</g>
  </g>
</svg>
